<?xml version="1.0" encoding="UTF-8" standalone="no"?><!DOCTYPE PUBLIC "-//W3C//DTD SVG 1.1//EN" "http://www.w3.org/Graphics/SVG/1.1/DTD/svg11.dtd"><svg class="hushai" width="100%" height="100%" viewBox="0 0 50 50" version="1.1" xmlns="http://www.w3.org/2000/svg" xmlns:xlink="http://www.w3.org/1999/xlink" xml:space="preserve" xmlns:serif="http://www.serif.com/" style="fill-rule:evenodd;clip-rule:evenodd;stroke-linecap:round;stroke-linejoin:round;stroke-miterlimit:1.5;"><g><path d="M1.26,25l24,-24l23.48,24" style="fill:none;stroke:#000;stroke-width:1.67px;"/><path d="M3.341,26.947l0.039,21.053" style="fill:none;stroke:#000;stroke-width:1.67px;"/><path d="M46.649,26.947l0,21.053" style="fill:none;stroke:#000;stroke-width:1.67px;"/></g><g><path d="M5.952,43.076c4.704,0 4.303,-3 8.262,-3c3.96,0 4.61,3 10.047,3c6.047,0 6.031,-3 9.929,-3c4.15,0 4.139,3 10.005,3" style="fill:none;stroke:#000;stroke-width:1px;"/><path d="M5.861,39.076c4.704,0 4.303,-3 8.262,-3c3.96,0 4.61,3 10.047,3c6.047,0 6.031,-3 9.929,-3c4.15,0 4.139,3 10.005,3" style="fill:none;stroke:#000;stroke-width:1px;"/><clipPath id="_clip1"><rect x="4.602" y="30.704" width="12.327" height="5.525"/></clipPath><g clip-path="url(#_clip1)"><path d="M5.805,35.208c4.704,0 4.303,-3 8.262,-3c1.632,0 2.702,0.51 3.776,1.109" style="fill:none;stroke:#000;stroke-width:1px;"/></g><clipPath id="_clip2"><rect x="36.026" y="30.879" width="8.738" height="5.525"/></clipPath><g clip-path="url(#_clip2)"><path d="M43.989,35.52c-4.703,0 -4.731,-3.137 -8.691,-3.137" style="fill:none;stroke:#000;stroke-width:1px;"/></g><clipPath id="_clip3"><rect x="10.679" y="20.544" width="28.31" height="16.923"/></clipPath><g clip-path="url(#_clip3)"><path d="M16.74,36.472c0.264,-1.416 0.482,-2.891 0.445,-4.333c-0.145,-5.657 -6.604,-7.229 -5.495,-9.501c1.337,-2.738 23.678,0.547 26.447,14.829" style="fill:none;stroke:#000;stroke-width:1px;"/></g></g></svg>
